<?xml version="1.0" encoding="UTF-8"?>
<svg width="40px" height="40px" viewBox="0 0 40 40" version="1.1" xmlns="http://www.w3.org/2000/svg" xmlns:xlink="http://www.w3.org/1999/xlink">
    <!-- Generator: Sketch 41 (35326) - http://www.bohemiancoding.com/sketch -->
    <title>behance-logo-button</title>
    <desc>Created with Sketch.</desc>
    <defs></defs>
    <g id="Page-1" stroke="none" stroke-width="1" fill="none" fill-rule="evenodd">
        <g id="11" transform="translate(-830.000000, -170.000000)" fill="#7C5B9C">
            <g id="Profile" transform="translate(129.000000, 118.000000)">
                <g id="icons" transform="translate(701.000000, 52.000000)">
                    <g id="behance-logo-button">
                        <g id="Group">
                            <path d="M16.7152,16.5488 C16.7152,15.0288 15.6808,15.0288 15.6808,15.0288 L15.1328,15.0288 L11.4256,15.0288 L11.424,15.0288 L11.424,18.2912 L15.4168,18.2912 C16.1072,18.2912 16.7152,18.0712 16.7152,16.5488 Z" id="Shape"></path>
                            <path d="M26.5768,18.2912 C24.32,18.2912 24.0048,20.5424 24.0048,20.5424 L28.8064,20.5424 C28.8064,20.544 28.836,18.2912 26.5768,18.2912 Z" id="Shape"></path>
                            <path d="M15.6808,20.544 L11.4264,20.544 L11.4264,24.4528 L15.1952,24.4528 C15.2592,24.4528 15.3536,24.456 15.4664,24.4528 C16.072,24.4376 17.2232,24.2648 17.2232,22.5536 C17.2232,20.5248 15.6808,20.544 15.6808,20.544 Z" id="Shape"></path>
                            <path d="M19.8608,0 C8.9096,0 0,8.9096 0,19.8608 C0,30.8112 8.9096,39.7216 19.8608,39.7216 C30.8112,39.7216 39.7216,30.8112 39.7216,19.8608 C39.7216,8.9096 30.8128,0 19.8608,0 Z M23.3752,13.292 L29.4064,13.292 L29.4064,15.0928 L23.3752,15.0928 L23.3752,13.292 Z M20.3256,22.7352 C20.3256,27.1968 15.6808,27.0512 15.6808,27.0512 L11.4264,27.0512 L11.3016,27.0512 L8.0744,27.0512 L8.0744,12.4312 L11.3016,12.4312 L11.4264,12.4312 L15.6808,12.4312 C17.9936,12.4312 19.8184,13.7088 19.8184,16.3248 C19.8184,18.94 17.588,19.1064 17.588,19.1064 C20.528,19.1056 20.3256,22.7352 20.3256,22.7352 Z M31.6096,22.4952 L24.0328,22.4952 C24.0328,25.212 26.6064,25.0408 26.6064,25.0408 C29.0352,25.0408 28.9504,23.468 28.9504,23.468 L31.5256,23.468 C31.5256,27.6424 26.5224,27.3552 26.5224,27.3552 C20.52,27.3552 20.9056,21.7672 20.9056,21.7672 C20.9056,21.7672 20.9,16.1496 26.5224,16.1496 C32.4392,16.1496 31.608,22.4952 31.6096,22.4952 Z" id="Shape"></path>
                        </g>
                    </g>
                </g>
            </g>
        </g>
    </g>
</svg>