<?xml version="1.0" encoding="UTF-8"?>
<svg width="41px" height="40px" viewBox="0 0 41 40" version="1.1" xmlns="http://www.w3.org/2000/svg" xmlns:xlink="http://www.w3.org/1999/xlink">
    <!-- Generator: Sketch 41 (35326) - http://www.bohemiancoding.com/sketch -->
    <title>Codepen</title>
    <desc>Created with Sketch.</desc>
    <defs></defs>
    <g id="Page-1" stroke="none" stroke-width="1" fill="none" fill-rule="evenodd">
        <g id="11" transform="translate(-949.000000, -170.000000)">
            <g id="Profile" transform="translate(129.000000, 118.000000)">
                <g id="icons" transform="translate(701.000000, 52.000000)">
                    <g id="Codepen" transform="translate(119.500000, 0.000000)">
                        <circle id="Oval-Copy-2" fill="#7C5B9C" cx="20" cy="20" r="20"></circle>
                        <path d="M21.0784278,9.86970041 C20.5245298,9.50234524 19.8019977,9.51079766 19.2565313,9.89180674 L11.0946426,15.5906883 C10.659437,15.8949754 10.4,16.3923678 10.4,16.9248703 L10.4,23.0652283 C10.4,23.6113846 10.6730575,24.1204804 11.1277208,24.4215166 L19.4232196,29.9188405 C19.965443,30.2783934 20.6698145,30.2783934 21.2120379,29.9188405 L29.6722792,24.3155362 C30.1262939,24.0145001 30.4,23.5054043 30.4,22.9592479 L30.4,16.9261707 C30.4,16.3806645 30.1269425,15.8715687 29.6729277,15.5705326 L21.0784278,9.86970041 L21.0784278,9.86970041 Z M27.3976651,16.5211047 L24.2708004,18.6257573 L21.3385134,16.4879452 L21.3197042,12.2831914 L27.3976651,16.5211047 L27.3976651,16.5211047 Z M19.198158,12.2870925 L19.198158,16.4021206 L16.1932287,18.5087238 L13.1960825,16.4937969 L19.198158,12.2870925 L19.198158,12.2870925 Z M12.3743157,18.5217275 L14.3142561,19.8247005 L12.3743157,21.1855401 L12.3743157,18.5217275 L12.3743157,18.5217275 Z M19.2493968,27.2946892 L13.1973797,23.2258243 L16.2204696,21.1075178 L19.2493968,23.144551 L19.2493968,27.2946892 L19.2493968,27.2946892 Z M18.1000908,19.7908908 L20.0594889,18.4170475 L22.3418861,19.9209281 L20.3189259,21.283068 L18.1000908,19.7908908 L18.1000908,19.7908908 Z M21.3871579,27.2946892 L21.3871579,23.1432506 L24.2818264,21.1985438 L27.3983137,23.2524819 L21.3871579,27.2946892 L21.3871579,27.2946892 Z M28.2622389,21.2557602 L26.2074977,19.9020727 L28.2622389,18.5204271 L28.2622389,21.2557602 L28.2622389,21.2557602 Z" id="codepen" fill="#FFFFFF"></path>
                    </g>
                </g>
            </g>
        </g>
    </g>
</svg>