<?xml version="1.0" encoding="UTF-8"?>
<svg width="41px" height="40px" viewBox="0 0 41 40" version="1.1" xmlns="http://www.w3.org/2000/svg" xmlns:xlink="http://www.w3.org/1999/xlink">
    <!-- Generator: Sketch 41 (35326) - http://www.bohemiancoding.com/sketch -->
    <title>GitHub</title>
    <desc>Created with Sketch.</desc>
    <defs></defs>
    <g id="Page-1" stroke="none" stroke-width="1" fill="none" fill-rule="evenodd">
        <g id="11" transform="translate(-889.000000, -170.000000)">
            <g id="Profile" transform="translate(129.000000, 118.000000)">
                <g id="icons" transform="translate(701.000000, 52.000000)">
                    <g id="GitHub" transform="translate(59.750000, 0.000000)">
                        <circle id="Oval-Copy-3" fill="#7C5B9C" cx="20" cy="20" r="20"></circle>
                        <path d="M30.2347073,17.7137051 C30.3275179,17.1249846 30.38542,16.4794771 30.4,15.7556516 C30.3944084,12.6519556 28.9123138,11.5537232 28.6271409,11.0388678 C29.0471399,8.68723374 28.5575852,7.61755196 28.3298963,7.2513697 C27.4901071,6.95255659 25.4081408,8.02260508 24.2705845,8.77587185 C22.415889,8.23162757 18.4963679,8.28474757 17.0265017,8.91673939 C14.3145106,6.97005371 12.8801278,7.26687613 12.8801278,7.26687613 C12.8801278,7.26687613 11.9528061,8.93381742 12.6349846,11.3724656 C11.742676,12.5123454 11.077586,13.3182607 11.077586,15.4559479 C11.077586,15.967922 11.1093067,16.4517122 11.1631326,16.917167 C11.9315893,20.9675934 15.1331874,22.7150005 18.2780854,23.0163282 C17.8048352,23.3768003 17.2366841,24.0589785 17.1580878,24.8494397 C16.5634419,25.2348479 15.3673041,25.362252 14.4371606,25.0690967 C13.1338935,24.6562904 12.6349846,22.0691262 10.6832979,22.4381897 C10.2609995,22.5173983 10.3449261,22.7966188 10.7106289,23.0346635 C11.3052226,23.4212765 11.8652214,23.9018711 12.2968741,24.9302722 C12.6284,25.7198429 13.3256811,27.129566 15.5302452,27.129566 C16.4054131,27.129566 17.0184017,27.025893 17.0184017,27.025893 C17.0184017,27.025893 17.035072,29.0378524 17.035072,29.8225511 C17.035072,30.7255911 15.8193375,30.9791422 15.8193375,31.4123793 C15.8193375,31.5846788 16.2217256,31.6010234 16.5450992,31.6010234 C17.1841647,31.6010234 18.5138221,31.0674136 18.5138221,30.1288031 C18.5138221,29.3829752 18.5256847,26.8765912 18.5256847,26.437644 C18.5256847,25.4786027 19.0383898,25.1732412 19.0383898,25.1732412 C19.0383898,25.1732412 19.1011519,30.2928255 18.9150082,30.9791946 C18.6967258,31.7863672 18.301288,31.6716929 18.301288,32.0309078 C18.301288,32.5669798 19.8998138,32.161979 20.4300255,30.9885718 C20.8402,30.0720684 20.6565125,25.0515472 20.6565125,25.0515472 L21.0841412,25.0422224 C21.0841412,25.0422224 21.0890535,27.3415746 21.0743167,28.3920305 C21.0589005,29.4800476 20.9469112,30.8555099 21.5915683,31.5046845 C22.0147029,31.9316352 23.3110196,32.6808158 23.3110196,31.9961755 C23.3110196,31.5993994 22.4032425,31.2715118 22.4032425,30.196539 L22.4032425,25.2445394 C22.9547232,25.2445394 23.0686983,26.8722955 23.0686983,26.8722955 L23.2674885,29.8964162 C23.2674885,29.8964162 23.1354843,30.9999397 24.4566759,31.4604702 C24.9230802,31.6242307 25.9208459,31.6687593 25.967617,31.3938869 C26.0144926,31.1183334 24.7662012,30.7108705 24.7543385,29.8567595 C24.7479108,29.3365607 24.7775934,29.0320898 24.7775934,26.7694082 C24.7775934,24.5079839 24.4745482,23.6714225 23.4185147,23.0047507 C26.4808969,22.6896978 29.6616963,21.3186883 30.2347073,17.7137051 L30.2347073,17.7137051 Z" id="github" fill="#FFFFFF"></path>
                    </g>
                </g>
            </g>
        </g>
    </g>
</svg>