<?xml version="1.0" encoding="UTF-8"?>
<svg width="40px" height="40px" viewBox="0 0 40 40" version="1.1" xmlns="http://www.w3.org/2000/svg" xmlns:xlink="http://www.w3.org/1999/xlink">
    <!-- Generator: Sketch 41 (35326) - http://www.bohemiancoding.com/sketch -->
    <title>LinkedIn</title>
    <desc>Created with Sketch.</desc>
    <defs></defs>
    <g id="Page-1" stroke="none" stroke-width="1" fill="none" fill-rule="evenodd">
        <g id="11" transform="translate(-1069.000000, -170.000000)">
            <g id="Profile" transform="translate(129.000000, 118.000000)">
                <g id="icons" transform="translate(701.000000, 52.000000)">
                    <g id="LinkedIn" transform="translate(239.000000, 0.000000)">
                        <circle id="Oval-Copy" fill="#7C5B9C" cx="20" cy="20" r="20"></circle>
                        <path d="M30,21.6124999 L30,29.0247949 L25.7133524,29.0247949 L25.7133524,22.1089307 C25.7133524,20.3716093 25.0933351,19.1859553 23.5417107,19.1859553 C22.3572423,19.1859553 21.6523644,19.9849992 21.3422627,20.7579397 C21.2291772,21.0342629 21.2000688,21.4188686 21.2000688,21.8056651 L21.2000688,29.0247949 L16.9119798,29.0247949 C16.9119798,29.0247949 16.9697315,17.311591 16.9119798,16.0980157 L21.1996503,16.0980157 L21.1996503,17.9303349 C21.190955,17.9440392 21.1796558,17.9588156 21.1714719,17.9721003 L21.1996503,17.9721003 L21.1996503,17.9303349 C21.7693093,17.05079 22.7866604,15.7943305 25.0638082,15.7943305 C27.8850406,15.7942839 30,17.6418923 30,21.6124999 L30,21.6124999 Z M12.4264561,9.86666667 C10.9595064,9.86666667 10,10.8312341 10,12.0996732 C10,13.3404706 10.9317465,14.3343111 12.3695413,14.3343111 L12.3981847,14.3343111 C13.8935452,14.3343111 14.8235248,13.340657 14.8235248,12.0996732 C14.7953464,10.8312341 13.8935452,9.86666667 12.4264561,9.86666667 L12.4264561,9.86666667 Z M10.2546749,29.0247949 L14.5411365,29.0247949 L14.5411365,16.0980157 L10.2546749,16.0980157 L10.2546749,29.0247949 L10.2546749,29.0247949 Z" fill="#FFFFFF"></path>
                    </g>
                </g>
            </g>
        </g>
    </g>
</svg>