<?xml version="1.0" encoding="UTF-8"?>
<svg width="41px" height="40px" viewBox="0 0 41 40" version="1.1" xmlns="http://www.w3.org/2000/svg" xmlns:xlink="http://www.w3.org/1999/xlink">
    <!-- Generator: Sketch 41 (35326) - http://www.bohemiancoding.com/sketch -->
    <title>Twitter</title>
    <desc>Created with Sketch.</desc>
    <defs></defs>
    <g id="Page-1" stroke="none" stroke-width="1" fill="none" fill-rule="evenodd">
        <g id="11" transform="translate(-1009.000000, -170.000000)">
            <g id="Profile" transform="translate(129.000000, 118.000000)">
                <g id="icons" transform="translate(701.000000, 52.000000)">
                    <g id="Twitter" transform="translate(179.250000, 0.000000)">
                        <circle id="Oval-Copy-4" fill="#7C5B9C" cx="20" cy="20" r="20"></circle>
                        <path d="M30.4,13.92685 C29.6638877,14.2538284 28.8740498,14.4755814 28.0441792,14.5745824 C28.8915335,14.0659166 29.540162,13.2591012 29.8475808,12.3006721 C29.0527429,12.7717294 28.1753885,13.1137774 27.2405504,13.2991995 C26.4919544,12.4986413 25.4271487,12 24.2461011,12 C21.9802804,12 20.1431205,13.8416738 20.1431205,16.1118167 C20.1431205,16.4337828 20.1793624,16.7482469 20.2493625,17.0489517 C16.8400105,16.8772889 13.8168356,15.2398415 11.7934663,12.7516802 C11.4397729,13.3580694 11.2385635,14.0646389 11.2385635,14.8188744 C11.2385635,16.245871 11.9634339,17.5049721 13.0632396,18.2416154 C12.3908529,18.2190765 11.7584663,18.0336544 11.2048379,17.7254475 L11.2048379,17.7768153 C11.2048379,19.7688251 12.6195788,21.431334 14.4954642,21.809713 C14.1517708,21.902424 13.7893519,21.9537919 13.4144167,21.9537919 C13.1494816,21.9537919 12.893272,21.9274855 12.6420625,21.8773626 C13.164449,23.5123202 14.67919,24.7012493 16.4738661,24.7338455 C15.0703671,25.8363535 13.300691,26.491588 11.3785637,26.491588 C11.0473867,26.491588 10.721177,26.4715388 10.4,26.4352079 C12.215918,27.6041205 14.3717712,28.2856613 16.6888338,28.2856613 C24.2361664,28.2856613 28.3616633,22.0189517 28.3616633,16.5841516 L28.3479051,16.051702 C29.1539849,15.4753538 29.851339,14.7512248 30.4,13.92685 L30.4,13.92685 Z" id="twitter" fill="#FFFFFF"></path>
                    </g>
                </g>
            </g>
        </g>
    </g>
</svg>